<svg width="44" height="43" viewBox="0 0 44 43" fill="none" xmlns="http://www.w3.org/2000/svg">
<path d="M43.2953 10.672C44.2349 9.75373 44.2349 8.27036 43.2953 7.35209L36.4769 0.688706C35.5373 -0.229569 34.0194 -0.229569 33.0798 0.688706L22.262 11.2606L12.8898 2.10144C11.0105 0.264888 7.95072 0.264888 6.07146 2.10144L1.49377 6.57509C-0.38549 8.41164 -0.38549 11.4019 1.49377 13.2385L10.866 22.3977L0 33.0167V43H10.2155L21.1055 32.3574L30.4778 41.5166C32.7666 43.7535 35.8505 42.9294 37.2961 41.5166L41.8738 37.043C43.753 35.2064 43.753 32.2162 41.8738 30.3796L32.5016 21.2204L43.2953 10.672ZM4.91499 9.895L9.46858 5.42135L12.5284 8.41164L9.68542 11.2136L13.0825 14.5335L15.9496 11.7316L18.8408 14.557L14.2631 19.0307L4.91499 9.895ZM31.9715 27.4129L29.1045 30.2148L32.5016 33.5347L35.3687 30.7328L38.4285 33.7231L33.8508 38.1967L24.4786 29.0375L29.0563 24.5639L31.9715 27.4129ZM8.21574 38.2909H4.81862V34.971L27.9721 12.3437L31.1042 15.4047L31.3692 15.6637L8.21574 38.2909ZM31.3692 9.00027L34.7663 5.68036L38.1635 9.00027L34.7663 12.3202L31.3692 9.00027Z" fill="#C883FF"/>
</svg>
