<svg width="48" height="41" viewBox="0 0 48 41" fill="none" xmlns="http://www.w3.org/2000/svg">
<path d="M46 18.4705L36 18.45C34.9 18.45 34 19.3725 34 20.5V38.95C34 40.0775 34.9 41 36 41H46C47.1 41 48 40.0775 48 38.95V20.5C48 19.3725 47.1 18.4705 46 18.4705ZM46 36.9H36V22.55H46V36.9ZM40 0H4C1.78 0 0 1.8245 0 4.1V28.7C0 30.955 1.78 32.8 4 32.8H18V36.9H16.05C14.9178 36.9 14 37.8178 14 38.95C14 40.0822 14.9178 41 16.05 41H27.95C29.0822 41 30 40.0822 30 38.95C30 37.8178 29.0822 36.9 27.95 36.9H26V32.8H30V28.7H4V4.1H40V14.35H44V4.1C44 1.8245 42.2 0 40 0ZM24.6731 14.35C24.2367 14.35 23.8507 14.067 23.7195 13.6508L22.9537 11.2233C22.6596 10.291 21.3404 10.291 21.0463 11.2233L20.2806 13.6508C20.1493 14.067 19.7633 14.35 19.3269 14.35H17.0647C16.0972 14.35 15.6936 15.5869 16.4749 16.1575L18.3603 17.5346C18.7067 17.7876 18.8532 18.2335 18.7242 18.6427L17.992 20.9662C17.7002 21.8922 18.7663 22.649 19.5442 22.0679L21.4016 20.6805C21.7565 20.4154 22.2435 20.4154 22.5984 20.6805L24.4558 22.0679C25.2337 22.649 26.2999 21.8922 26.008 20.9662L25.2758 18.6427C25.1468 18.2335 25.2933 17.7876 25.6397 17.5346L27.5251 16.1575C28.3064 15.5869 27.9028 14.35 26.9353 14.35H24.6731Z" fill="#EFDBFF"/>
</svg>
