<svg width="50" height="40" viewBox="0 0 50 40" fill="none" xmlns="http://www.w3.org/2000/svg">
<path fill-rule="evenodd" clip-rule="evenodd" d="M22.0005 2.96296C21.1721 2.96296 20.5005 3.62624 20.5005 4.44444H29.5005C29.5005 3.62624 28.8289 2.96296 28.0005 2.96296H22.0005ZM22.0005 0C19.5152 0 17.5005 1.98985 17.5005 4.44444H5.00049C2.23906 4.44444 0.000488284 6.65538 0.000488284 9.38272V17.2406C-0.000164325 17.2697 -0.000161195 17.2987 0.000488284 17.3276V35.0617C0.000488284 37.7891 2.23906 40 5.00049 40H45.0005C47.7619 40 50.0005 37.7891 50.0005 35.0617V17.3323C50.0013 17.3002 50.0013 17.268 50.0005 17.2357V9.38272C50.0005 6.65539 47.7619 4.44444 45.0005 4.44444H32.5005C32.5005 1.98985 30.4858 0 28.0005 0H22.0005ZM46.0005 15.8835V9.38272C46.0005 8.83725 45.5528 8.39506 45.0005 8.39506H5.00049C4.4482 8.39506 4.00049 8.83725 4.00049 9.38272V15.8759L24.8534 22.9818C25.0663 23.0544 25.2979 23.0538 25.5104 22.9802L46.0005 15.8835ZM4.00049 20.0551V35.0617C4.00049 35.6072 4.4482 36.0494 5.00049 36.0494H45.0005C45.5528 36.0494 46.0005 35.6072 46.0005 35.0617V20.07L26.8341 26.7082C25.7712 27.0763 24.6135 27.0792 23.5488 26.7164L4.00049 20.0551Z" fill="#EFDBFF"/>
<path fill-rule="evenodd" clip-rule="evenodd" d="M22.0005 2.96296C21.1721 2.96296 20.5005 3.62624 20.5005 4.44444H29.5005C29.5005 3.62624 28.8289 2.96296 28.0005 2.96296H22.0005ZM22.0005 0C19.5152 0 17.5005 1.98985 17.5005 4.44444H5.00049C2.23906 4.44444 0.000488284 6.65538 0.000488284 9.38272V17.2406C-0.000164325 17.2697 -0.000161195 17.2987 0.000488284 17.3276V35.0617C0.000488284 37.7891 2.23906 40 5.00049 40H45.0005C47.7619 40 50.0005 37.7891 50.0005 35.0617V17.3323C50.0013 17.3002 50.0013 17.268 50.0005 17.2357V9.38272C50.0005 6.65539 47.7619 4.44444 45.0005 4.44444H32.5005C32.5005 1.98985 30.4858 0 28.0005 0H22.0005ZM46.0005 15.8835V9.38272C46.0005 8.83725 45.5528 8.39506 45.0005 8.39506H5.00049C4.4482 8.39506 4.00049 8.83725 4.00049 9.38272V15.8759L24.8534 22.9818C25.0663 23.0544 25.2979 23.0538 25.5104 22.9802L46.0005 15.8835ZM4.00049 20.0551V35.0617C4.00049 35.6072 4.4482 36.0494 5.00049 36.0494H45.0005C45.5528 36.0494 46.0005 35.6072 46.0005 35.0617V20.07L26.8341 26.7082C25.7712 27.0763 24.6135 27.0792 23.5488 26.7164L4.00049 20.0551Z" fill="#EFDBFF"/>
<path fill-rule="evenodd" clip-rule="evenodd" d="M22.0005 2.96296C21.1721 2.96296 20.5005 3.62624 20.5005 4.44444H29.5005C29.5005 3.62624 28.8289 2.96296 28.0005 2.96296H22.0005ZM22.0005 0C19.5152 0 17.5005 1.98985 17.5005 4.44444H5.00049C2.23906 4.44444 0.000488284 6.65538 0.000488284 9.38272V17.2406C-0.000164325 17.2697 -0.000161195 17.2987 0.000488284 17.3276V35.0617C0.000488284 37.7891 2.23906 40 5.00049 40H45.0005C47.7619 40 50.0005 37.7891 50.0005 35.0617V17.3323C50.0013 17.3002 50.0013 17.268 50.0005 17.2357V9.38272C50.0005 6.65539 47.7619 4.44444 45.0005 4.44444H32.5005C32.5005 1.98985 30.4858 0 28.0005 0H22.0005ZM46.0005 15.8835V9.38272C46.0005 8.83725 45.5528 8.39506 45.0005 8.39506H5.00049C4.4482 8.39506 4.00049 8.83725 4.00049 9.38272V15.8759L24.8534 22.9818C25.0663 23.0544 25.2979 23.0538 25.5104 22.9802L46.0005 15.8835ZM4.00049 20.0551V35.0617C4.00049 35.6072 4.4482 36.0494 5.00049 36.0494H45.0005C45.5528 36.0494 46.0005 35.6072 46.0005 35.0617V20.07L26.8341 26.7082C25.7712 27.0763 24.6135 27.0792 23.5488 26.7164L4.00049 20.0551Z" fill="#EFDBFF"/>
<path fill-rule="evenodd" clip-rule="evenodd" d="M22.0005 2.96296C21.1721 2.96296 20.5005 3.62624 20.5005 4.44444H29.5005C29.5005 3.62624 28.8289 2.96296 28.0005 2.96296H22.0005ZM22.0005 0C19.5152 0 17.5005 1.98985 17.5005 4.44444H5.00049C2.23906 4.44444 0.000488284 6.65538 0.000488284 9.38272V17.2406C-0.000164325 17.2697 -0.000161195 17.2987 0.000488284 17.3276V35.0617C0.000488284 37.7891 2.23906 40 5.00049 40H45.0005C47.7619 40 50.0005 37.7891 50.0005 35.0617V17.3323C50.0013 17.3002 50.0013 17.268 50.0005 17.2357V9.38272C50.0005 6.65539 47.7619 4.44444 45.0005 4.44444H32.5005C32.5005 1.98985 30.4858 0 28.0005 0H22.0005ZM46.0005 15.8835V9.38272C46.0005 8.83725 45.5528 8.39506 45.0005 8.39506H5.00049C4.4482 8.39506 4.00049 8.83725 4.00049 9.38272V15.8759L24.8534 22.9818C25.0663 23.0544 25.2979 23.0538 25.5104 22.9802L46.0005 15.8835ZM4.00049 20.0551V35.0617C4.00049 35.6072 4.4482 36.0494 5.00049 36.0494H45.0005C45.5528 36.0494 46.0005 35.6072 46.0005 35.0617V20.07L26.8341 26.7082C25.7712 27.0763 24.6135 27.0792 23.5488 26.7164L4.00049 20.0551Z" fill="#EFDBFF"/>
<path fill-rule="evenodd" clip-rule="evenodd" d="M22.0005 2.96296C21.1721 2.96296 20.5005 3.62624 20.5005 4.44444H29.5005C29.5005 3.62624 28.8289 2.96296 28.0005 2.96296H22.0005ZM22.0005 0C19.5152 0 17.5005 1.98985 17.5005 4.44444H5.00049C2.23906 4.44444 0.000488284 6.65538 0.000488284 9.38272V17.2406C-0.000164325 17.2697 -0.000161195 17.2987 0.000488284 17.3276V35.0617C0.000488284 37.7891 2.23906 40 5.00049 40H45.0005C47.7619 40 50.0005 37.7891 50.0005 35.0617V17.3323C50.0013 17.3002 50.0013 17.268 50.0005 17.2357V9.38272C50.0005 6.65539 47.7619 4.44444 45.0005 4.44444H32.5005C32.5005 1.98985 30.4858 0 28.0005 0H22.0005ZM46.0005 15.8835V9.38272C46.0005 8.83725 45.5528 8.39506 45.0005 8.39506H5.00049C4.4482 8.39506 4.00049 8.83725 4.00049 9.38272V15.8759L24.8534 22.9818C25.0663 23.0544 25.2979 23.0538 25.5104 22.9802L46.0005 15.8835ZM4.00049 20.0551V35.0617C4.00049 35.6072 4.4482 36.0494 5.00049 36.0494H45.0005C45.5528 36.0494 46.0005 35.6072 46.0005 35.0617V20.07L26.8341 26.7082C25.7712 27.0763 24.6135 27.0792 23.5488 26.7164L4.00049 20.0551Z" fill="#EFDBFF"/>
</svg>
