<svg width="34" height="43" viewBox="0 0 34 43" fill="none" xmlns="http://www.w3.org/2000/svg">
<path fill-rule="evenodd" clip-rule="evenodd" d="M0 4.5C0 2.01472 2.01472 0 4.5 0H29.5C31.9853 0 34 2.01472 34 4.5V12V38.5C34 40.9853 31.9853 43 29.5 43H4.5C2.01472 43 0 40.9853 0 38.5V12V4.5ZM31 4.5V10.5H3V4.5C3 3.67157 3.67157 3 4.5 3H29.5C30.3284 3 31 3.67157 31 4.5ZM31 13.5H3V38.5C3 39.3284 3.67157 40 4.5 40H29.5C30.3284 40 31 39.3284 31 38.5V13.5ZM10 27C10 23.134 13.134 20 17 20C20.866 20 24 23.134 24 27C24 30.866 20.866 34 17 34C13.134 34 10 30.866 10 27ZM17 17C11.4772 17 7 21.4772 7 27C7 32.5228 11.4772 37 17 37C22.5228 37 27 32.5228 27 27C27 21.4772 22.5228 17 17 17ZM22.5 6.5C22.5 7.60457 21.6046 8.5 20.5 8.5C19.3954 8.5 18.5 7.60457 18.5 6.5C18.5 5.39543 19.3954 4.5 20.5 4.5C21.6046 4.5 22.5 5.39543 22.5 6.5ZM26.5 8.5C27.6046 8.5 28.5 7.60457 28.5 6.5C28.5 5.39543 27.6046 4.5 26.5 4.5C25.3954 4.5 24.5 5.39543 24.5 6.5C24.5 7.60457 25.3954 8.5 26.5 8.5Z" fill="#C883FF"/>
</svg>
