<svg width="50" height="45" viewBox="0 0 50 45" fill="none" xmlns="http://www.w3.org/2000/svg">
<path d="M45.4545 9H28.2045L34.8783 2.39293C35.3217 1.95401 35.3242 1.23845 34.884 0.796387C34.4456 0.356174 33.7337 0.35365 33.2922 0.790743L25 9L16.7072 0.790116C16.2651 0.352469 15.5531 0.352469 15.111 0.790117C14.6621 1.2345 14.6627 1.95994 15.1122 2.40364L21.7955 9H4.54545C2.04545 9 0 11.0025 0 13.5V40.5C0 42.975 2.04545 45 4.54545 45H45.4545C47.9545 45 50 42.975 50 40.5V13.5C50 11.0025 47.9545 9 45.4545 9ZM45.4545 40.5H4.54545V13.5H45.4545V40.5ZM19.6742 18.8443C19.0076 18.4671 18.1818 18.9487 18.1818 19.7146V34.2854C18.1818 35.0513 19.0076 35.5329 19.6742 35.1557L32.5524 27.8704C33.2292 27.4875 33.2292 26.5125 32.5524 26.1296L19.6742 18.8443Z" fill="#EFDBFF"/>
</svg>
