<svg width="64" height="43" viewBox="0 0 64 43" fill="none" xmlns="http://www.w3.org/2000/svg">
<path d="M50.6667 16H48.48L43.9467 3.52C43.1733 1.41333 41.1733 0 38.9333 0H34.6667C33.1939 0 32 1.19391 32 2.66667C32 4.13943 33.1939 5.33333 34.6667 5.33333H38.9333L42.8267 16H30L29.04 13.3333H29.3333C30.8061 13.3333 32 12.1394 32 10.6667C32 9.19391 30.8061 8 29.3333 8H21.3333C19.8606 8 18.6667 9.19391 18.6667 10.6667C18.6667 12.1394 19.8606 13.3333 21.3333 13.3333H23.3333L28.1867 26.6667H26.4C25.2267 20.72 20.24 16.32 14 16.0267C6.53333 15.6533 0 21.8667 0 29.3333C0 36.8 5.86667 42.6667 13.3333 42.6667C19.8933 42.6667 25.2 38.16 26.4 32H37.6C38.7733 37.9467 43.76 42.3467 50 42.64C57.4667 42.9867 64 36.8 64 29.3067C64 21.8667 58.1333 16 50.6667 16ZM20.8533 32C19.7867 35.12 16.88 37.3333 13.3333 37.3333C8.85333 37.3333 5.33333 33.8133 5.33333 29.3333C5.33333 24.8533 8.85333 21.3333 13.3333 21.3333C16.88 21.3333 19.7867 23.5467 20.8533 26.6667H16C14.5272 26.6667 13.3333 27.8606 13.3333 29.3333C13.3333 30.8061 14.5272 32 16 32H20.8533ZM37.6 26.6667H33.8667L31.92 21.3333H40C38.8267 22.88 37.9733 24.6667 37.6 26.6667ZM50.6667 37.3333C46.1867 37.3333 42.6667 33.8133 42.6667 29.3333C42.6667 26.8533 43.76 24.72 45.4667 23.2533L47.1171 27.7921C47.6197 29.1742 49.1465 29.8883 50.5294 29.3881C51.9154 28.8868 52.6316 27.356 52.1284 25.9707L50.4533 21.36C50.5067 21.36 50.5867 21.3333 50.6667 21.3333C55.1467 21.3333 58.6667 24.8533 58.6667 29.3333C58.6667 33.8133 55.1467 37.3333 50.6667 37.3333Z" fill="#C883FF"/>
</svg>
