<svg width="29" height="49" viewBox="0 0 29 49" fill="none" xmlns="http://www.w3.org/2000/svg">
<path d="M23.4231 0H5.57692C2.49846 0 0 2.49455 0 5.56818V43.4318C0 46.5055 2.49846 49 5.57692 49H23.4231C26.5015 49 29 46.5055 29 43.4318V5.56818C29 2.49455 26.5015 0 23.4231 0ZM14.5 46.7727C12.6485 46.7727 11.1538 45.2805 11.1538 43.4318C11.1538 41.5832 12.6485 40.0909 14.5 40.0909C16.3515 40.0909 17.8462 41.5832 17.8462 43.4318C17.8462 45.2805 16.3515 46.7727 14.5 46.7727ZM24.5385 37.8636H4.46154V6.68182H24.5385V37.8636Z" fill="#EFDBFF"/>
</svg>
