<svg width="60" height="32" viewBox="0 0 60 32" fill="none" xmlns="http://www.w3.org/2000/svg">
<path d="M54.5455 0H5.45455C2.45455 0 0 2.4 0 5.33333V26.6667C0 29.6 2.45455 32 5.45455 32H54.5455C57.5455 32 60 29.6 60 26.6667V5.33333C60 2.4 57.5455 0 54.5455 0ZM55.5 27.5H4.5V4.5H55.5V27.5ZM13.6364 24H19.0909V18.6667H24.5455V13.3333H19.0909V8H13.6364V13.3333H8.18182V18.6667H13.6364V24Z" fill="#C883FF"/>
<path d="M36.8182 24C39.0776 24 40.9091 22.2091 40.9091 20C40.9091 17.7909 39.0776 16 36.8182 16C34.5589 16 32.7273 17.7909 32.7273 20C32.7273 22.2091 34.5589 24 36.8182 24Z" fill="#C883FF"/>
<path d="M47.7274 16C49.9867 16 51.8183 14.2091 51.8183 12C51.8183 9.79086 49.9867 8 47.7274 8C45.468 8 43.6365 9.79086 43.6365 12C43.6365 14.2091 45.468 16 47.7274 16Z" fill="#C883FF"/>
</svg>
