<svg width="58" height="46" viewBox="0 0 58 46" fill="none" xmlns="http://www.w3.org/2000/svg">
<path d="M7.90907 16.5471H21.0909C21.0909 13.6018 18.7182 11.192 15.8182 11.192H7.90907C6.45907 11.192 5.27271 12.3969 5.27271 13.8695C5.27271 15.3422 6.45907 16.5471 7.90907 16.5471Z" fill="#EFDBFF"/>
<path d="M55.3636 30.0955V13.8696C55.3636 10.9243 52.9909 8.51455 50.0909 8.51455H33.5082L30.7136 5.67637L33.5095 2.83685C34.0207 2.31769 34.0207 1.48441 33.5095 0.965251C32.987 0.434594 32.1312 0.434594 31.6087 0.965251L24.1741 8.51589C23.663 9.03505 23.663 9.86833 24.1741 10.3875C24.6966 10.9181 25.5525 10.9181 26.075 10.3875L28.8418 7.57742L31.6364 10.4156V16.5471C31.6364 19.4924 29.2636 21.9022 26.3636 21.9022H20.9855C20.4055 21.4738 19.7991 21.099 19.1664 20.7509L18.1118 23.1339L16.8991 22.5716L17.9536 20.1618C16.5036 19.5728 14.8691 19.2247 13.1818 19.2247C11.7845 19.2247 10.44 19.5192 9.17455 19.9208L10.0709 22.3574L8.83182 22.8393L7.90909 20.3492C5.11455 21.5809 2.87364 23.7765 1.50273 26.5343L3.84909 27.6054L3.29545 28.837L0.922727 27.766C0.342727 29.2386 0 30.8987 0 32.6123C0 34.0314 0.29 35.397 0.685454 36.6822L3.08455 35.7718L3.55909 37.0303L1.10727 37.9674C2.32 40.8056 4.48182 43.0815 7.19727 44.4738L8.25182 42.0908L9.46455 42.6531L8.41 45.0629C9.86 45.6519 11.4945 46 13.1818 46C14.5791 46 15.9236 45.7055 17.1891 45.3038L16.2927 42.8673L17.5318 42.3853L18.4545 44.8754C21.2491 43.6438 23.49 41.4482 24.8609 38.6903L22.5145 37.6193L23.0682 36.3877L25.4409 37.4587C25.7045 36.7625 25.9155 36.0128 26.0736 35.2631H39.6773C39.6245 35.7183 39.5455 36.1735 39.5455 36.6286C39.5455 41.7963 43.6845 46 48.7727 46C53.8609 46 58 41.7963 58 36.6286C58 34.085 56.9982 31.7823 55.3636 30.0955ZM13.1818 40.6449C8.80545 40.6449 5.27273 37.057 5.27273 32.6123C5.27273 28.1676 8.80545 24.5797 13.1818 24.5797C17.5582 24.5797 21.0909 28.1676 21.0909 32.6123C21.0909 37.057 17.5582 40.6449 13.1818 40.6449ZM26.0209 29.9348C25.9155 29.4529 25.81 28.9977 25.6782 28.5425L23.2791 29.4529L22.8045 28.1944L25.2564 27.2573H26.3636C32.19 27.2573 36.9091 22.4645 36.9091 16.5471V13.8696H50.0909V27.3912C49.6691 27.3376 49.2209 27.2573 48.7727 27.2573C46.2682 27.2573 44.0009 28.2747 42.34 29.9348H26.0209ZM48.7727 40.6449C46.5845 40.6449 44.8182 38.851 44.8182 36.6286C44.8182 34.4063 46.5845 32.6123 48.7727 32.6123C50.9609 32.6123 52.7273 34.4063 52.7273 36.6286C52.7273 38.851 50.9609 40.6449 48.7727 40.6449Z" fill="#EFDBFF"/>
</svg>
