<svg width="48" height="41" viewBox="0 0 48 41" fill="none" xmlns="http://www.w3.org/2000/svg">
<path fill-rule="evenodd" clip-rule="evenodd" d="M11 4.50741V37.9868C11 39.3797 9.88071 40.5089 8.5 40.5089H2.5C1.11929 40.5089 0 39.3797 0 37.9868V2.67764C0 1.28473 1.11929 0.155554 2.5 0.155554H8.5C9.75736 0.155554 10.7979 1.09199 10.9738 2.31126C11.224 1.26406 12.1259 0.457338 13.2474 0.386002L19.2355 0.00508587C20.6134 -0.0825701 21.801 0.973307 21.8878 2.36345L24.0904 37.6026C24.1773 38.9928 23.1307 40.1908 21.7527 40.2784L15.7646 40.6593C14.3866 40.747 13.1991 39.6911 13.1122 38.301L11 4.50741ZM16.0748 37.6071L13.9352 3.37476L18.9253 3.05733L21.0649 37.2897L16.0748 37.6071ZM3 37.4824V3.18205H8V37.4824H3ZM23.6783 12.8593C23.5914 11.4691 24.6381 10.2711 26.016 10.1835L32.0041 9.80254C33.3821 9.71488 34.5696 10.7708 34.6565 12.1609L36.2467 37.6027C36.3336 38.9928 35.287 40.1908 33.909 40.2785L27.9209 40.6594C26.5429 40.747 25.3554 39.6912 25.2685 38.301L23.6783 12.8593ZM26.7038 13.1722L28.2311 37.6071L33.2212 37.2897L31.6939 12.8548L26.7038 13.1722ZM39.5 17.5234C38.1193 17.5234 37 18.6526 37 20.0455V38.4779C37 39.8708 38.1193 41 39.5 41H45.5C46.8807 41 48 39.8708 48 38.4779V20.0455C48 18.6526 46.8807 17.5234 45.5 17.5234H39.5ZM40 37.9735V20.5499H45V37.9735H40Z" fill="#EFDBFF"/>
</svg>
