<svg width="40" height="40" viewBox="0 0 40 40" fill="none" xmlns="http://www.w3.org/2000/svg">
<path d="M32.5871 24.7871C32.1966 24.3966 31.565 24.3988 31.1493 24.7624C30.9572 24.9304 30.7614 25.0937 30.5621 25.253C30.0998 25.6227 29.4237 25.4745 29.1284 24.9613L28.1332 23.2316C28.0459 23.0798 28 22.9079 28 22.7329V19C28 18.4477 28.4477 18 29 18C29.5523 18 30 17.5523 30 17C30 16.4477 29.5523 16 29 16H19.3377C18.9802 16 18.65 15.8092 18.4714 15.4996L15.5886 10.5004C15.41 10.1908 15.0798 10 14.7223 10H9.84942C9.25269 10 8.99735 10.758 9.47244 11.1191C9.7584 11.3364 9.80186 11.7498 9.56734 12.0219L7.59096 14.3145C7.25549 14.7036 7.2695 15.2837 7.62337 15.6562L8.33188 16.402C8.66175 16.7492 9.19152 16.8138 9.59516 16.556L10.4617 16.0025C11.1274 15.5774 12 16.0554 12 16.8453V22.7329C12 22.9079 11.9541 23.0798 11.8668 23.2316L10.8622 24.9777C10.5703 25.4849 9.90536 25.6361 9.4486 25.2703C9.24483 25.1072 9.04459 24.9386 8.84832 24.765C8.43459 24.3992 7.80342 24.3966 7.41289 24.7871L6.70711 25.4929C6.31658 25.8834 6.31495 26.5187 6.7243 26.8894C10.3712 30.1923 15.054 32 20 32C24.946 32 29.6288 30.1923 33.2757 26.8894C33.685 26.5187 33.6834 25.8834 33.2929 25.4929L32.5871 24.7871ZM13.0216 27.4769C12.9548 27.4459 12.9271 27.3658 12.96 27.3L14.1575 25.2155C14.4012 24.7912 14.9153 24.6091 15.3824 24.7548C18.3744 25.6884 21.5856 25.6884 24.5776 24.7548C25.0447 24.6091 25.5588 24.7912 25.8025 25.2155L27 27.3C27.0328 27.3657 27.0049 27.4456 26.9381 27.476C24.7714 28.4605 22.4139 29 19.96 29C17.506 29 15.1869 28.4797 13.0216 27.4769ZM36 4V36H4V4H36ZM36 0H4C1.8 0 0 1.8 0 4V36C0 38.2 1.8 40 4 40H36C38.2 40 40 38.2 40 36V4C40 1.8 38.2 0 36 0Z" fill="#C883FF"/>
</svg>
