<svg width="48" height="48" viewBox="0 0 48 48" fill="none" xmlns="http://www.w3.org/2000/svg">
<path fill-rule="evenodd" clip-rule="evenodd" d="M22.4681 3.11902C17.3831 3.48675 12.8015 5.67059 9.3687 9.02507C11.3744 11.7941 13.4209 15.9393 14.0919 20.7901C14.1681 21.341 14.2265 21.9007 14.2651 22.4681H22.4681L22.4681 3.11902ZM3.11902 22.4681C3.41861 18.3253 4.92361 14.5167 7.28498 11.3912C8.90078 13.7895 10.5073 17.2366 11.057 21.21C11.1142 21.6236 11.16 22.0431 11.1933 22.4681H3.11902ZM3.11902 25.5319H11.2032C10.9513 28.9812 9.77575 32.6764 7.1064 36.3689C4.8478 33.2893 3.41099 29.5692 3.11902 25.5319ZM22.4681 44.881C17.2738 44.5053 12.6048 42.2347 9.14897 38.757C12.5408 34.3074 14.0057 29.7693 14.2736 25.5319H22.4681L22.4681 44.881ZM25.5319 3.11902L25.5319 22.4681H33.7569C33.7955 21.9007 33.8539 21.341 33.9301 20.7901C34.6001 15.9466 36.6414 11.8066 38.6442 9.03767C35.21 5.67606 30.6233 3.48721 25.5319 3.11902ZM40.7266 11.4066C39.1143 13.8043 37.5135 17.2451 36.965 21.21C36.9078 21.6236 36.862 22.0431 36.8287 22.4681H44.881C44.5819 18.3322 43.0813 14.5292 40.7266 11.4066ZM33.7484 25.5319H25.5319L25.5319 44.881C30.7324 44.5049 35.4065 42.2292 38.8635 38.7445C35.4785 34.2989 34.0161 29.7653 33.7484 25.5319ZM40.9047 36.3537C38.2431 32.6663 37.0703 28.9765 36.8188 25.5319H44.881C44.5895 29.5626 43.1569 33.2771 40.9047 36.3537ZM0 24C0 10.7452 10.7452 0 24 0C37.2548 0 48 10.7452 48 24C48 37.2548 37.2548 48 24 48C10.7452 48 0 37.2548 0 24Z" fill="#EFDBFF"/>
<path fill-rule="evenodd" clip-rule="evenodd" d="M22.4681 3.11902C17.3831 3.48675 12.8015 5.67059 9.3687 9.02507C11.3744 11.7941 13.4209 15.9393 14.0919 20.7901C14.1681 21.341 14.2265 21.9007 14.2651 22.4681H22.4681L22.4681 3.11902ZM3.11902 22.4681C3.41861 18.3253 4.92361 14.5167 7.28498 11.3912C8.90078 13.7895 10.5073 17.2366 11.057 21.21C11.1142 21.6236 11.16 22.0431 11.1933 22.4681H3.11902ZM3.11902 25.5319H11.2032C10.9513 28.9812 9.77575 32.6764 7.1064 36.3689C4.8478 33.2893 3.41099 29.5692 3.11902 25.5319ZM22.4681 44.881C17.2738 44.5053 12.6048 42.2347 9.14897 38.757C12.5408 34.3074 14.0057 29.7693 14.2736 25.5319H22.4681L22.4681 44.881ZM25.5319 3.11902L25.5319 22.4681H33.7569C33.7955 21.9007 33.8539 21.341 33.9301 20.7901C34.6001 15.9466 36.6414 11.8066 38.6442 9.03767C35.21 5.67606 30.6233 3.48721 25.5319 3.11902ZM40.7266 11.4066C39.1143 13.8043 37.5135 17.2451 36.965 21.21C36.9078 21.6236 36.862 22.0431 36.8287 22.4681H44.881C44.5819 18.3322 43.0813 14.5292 40.7266 11.4066ZM33.7484 25.5319H25.5319L25.5319 44.881C30.7324 44.5049 35.4065 42.2292 38.8635 38.7445C35.4785 34.2989 34.0161 29.7653 33.7484 25.5319ZM40.9047 36.3537C38.2431 32.6663 37.0703 28.9765 36.8188 25.5319H44.881C44.5895 29.5626 43.1569 33.2771 40.9047 36.3537ZM0 24C0 10.7452 10.7452 0 24 0C37.2548 0 48 10.7452 48 24C48 37.2548 37.2548 48 24 48C10.7452 48 0 37.2548 0 24Z" fill="#EFDBFF"/>
<path fill-rule="evenodd" clip-rule="evenodd" d="M22.4681 3.11902C17.3831 3.48675 12.8015 5.67059 9.3687 9.02507C11.3744 11.7941 13.4209 15.9393 14.0919 20.7901C14.1681 21.341 14.2265 21.9007 14.2651 22.4681H22.4681L22.4681 3.11902ZM3.11902 22.4681C3.41861 18.3253 4.92361 14.5167 7.28498 11.3912C8.90078 13.7895 10.5073 17.2366 11.057 21.21C11.1142 21.6236 11.16 22.0431 11.1933 22.4681H3.11902ZM3.11902 25.5319H11.2032C10.9513 28.9812 9.77575 32.6764 7.1064 36.3689C4.8478 33.2893 3.41099 29.5692 3.11902 25.5319ZM22.4681 44.881C17.2738 44.5053 12.6048 42.2347 9.14897 38.757C12.5408 34.3074 14.0057 29.7693 14.2736 25.5319H22.4681L22.4681 44.881ZM25.5319 3.11902L25.5319 22.4681H33.7569C33.7955 21.9007 33.8539 21.341 33.9301 20.7901C34.6001 15.9466 36.6414 11.8066 38.6442 9.03767C35.21 5.67606 30.6233 3.48721 25.5319 3.11902ZM40.7266 11.4066C39.1143 13.8043 37.5135 17.2451 36.965 21.21C36.9078 21.6236 36.862 22.0431 36.8287 22.4681H44.881C44.5819 18.3322 43.0813 14.5292 40.7266 11.4066ZM33.7484 25.5319H25.5319L25.5319 44.881C30.7324 44.5049 35.4065 42.2292 38.8635 38.7445C35.4785 34.2989 34.0161 29.7653 33.7484 25.5319ZM40.9047 36.3537C38.2431 32.6663 37.0703 28.9765 36.8188 25.5319H44.881C44.5895 29.5626 43.1569 33.2771 40.9047 36.3537ZM0 24C0 10.7452 10.7452 0 24 0C37.2548 0 48 10.7452 48 24C48 37.2548 37.2548 48 24 48C10.7452 48 0 37.2548 0 24Z" fill="#EFDBFF"/>
<path fill-rule="evenodd" clip-rule="evenodd" d="M22.4681 3.11902C17.3831 3.48675 12.8015 5.67059 9.3687 9.02507C11.3744 11.7941 13.4209 15.9393 14.0919 20.7901C14.1681 21.341 14.2265 21.9007 14.2651 22.4681H22.4681L22.4681 3.11902ZM3.11902 22.4681C3.41861 18.3253 4.92361 14.5167 7.28498 11.3912C8.90078 13.7895 10.5073 17.2366 11.057 21.21C11.1142 21.6236 11.16 22.0431 11.1933 22.4681H3.11902ZM3.11902 25.5319H11.2032C10.9513 28.9812 9.77575 32.6764 7.1064 36.3689C4.8478 33.2893 3.41099 29.5692 3.11902 25.5319ZM22.4681 44.881C17.2738 44.5053 12.6048 42.2347 9.14897 38.757C12.5408 34.3074 14.0057 29.7693 14.2736 25.5319H22.4681L22.4681 44.881ZM25.5319 3.11902L25.5319 22.4681H33.7569C33.7955 21.9007 33.8539 21.341 33.9301 20.7901C34.6001 15.9466 36.6414 11.8066 38.6442 9.03767C35.21 5.67606 30.6233 3.48721 25.5319 3.11902ZM40.7266 11.4066C39.1143 13.8043 37.5135 17.2451 36.965 21.21C36.9078 21.6236 36.862 22.0431 36.8287 22.4681H44.881C44.5819 18.3322 43.0813 14.5292 40.7266 11.4066ZM33.7484 25.5319H25.5319L25.5319 44.881C30.7324 44.5049 35.4065 42.2292 38.8635 38.7445C35.4785 34.2989 34.0161 29.7653 33.7484 25.5319ZM40.9047 36.3537C38.2431 32.6663 37.0703 28.9765 36.8188 25.5319H44.881C44.5895 29.5626 43.1569 33.2771 40.9047 36.3537ZM0 24C0 10.7452 10.7452 0 24 0C37.2548 0 48 10.7452 48 24C48 37.2548 37.2548 48 24 48C10.7452 48 0 37.2548 0 24Z" fill="#EFDBFF"/>
<path fill-rule="evenodd" clip-rule="evenodd" d="M22.4681 3.11902C17.3831 3.48675 12.8015 5.67059 9.3687 9.02507C11.3744 11.7941 13.4209 15.9393 14.0919 20.7901C14.1681 21.341 14.2265 21.9007 14.2651 22.4681H22.4681L22.4681 3.11902ZM3.11902 22.4681C3.41861 18.3253 4.92361 14.5167 7.28498 11.3912C8.90078 13.7895 10.5073 17.2366 11.057 21.21C11.1142 21.6236 11.16 22.0431 11.1933 22.4681H3.11902ZM3.11902 25.5319H11.2032C10.9513 28.9812 9.77575 32.6764 7.1064 36.3689C4.8478 33.2893 3.41099 29.5692 3.11902 25.5319ZM22.4681 44.881C17.2738 44.5053 12.6048 42.2347 9.14897 38.757C12.5408 34.3074 14.0057 29.7693 14.2736 25.5319H22.4681L22.4681 44.881ZM25.5319 3.11902L25.5319 22.4681H33.7569C33.7955 21.9007 33.8539 21.341 33.9301 20.7901C34.6001 15.9466 36.6414 11.8066 38.6442 9.03767C35.21 5.67606 30.6233 3.48721 25.5319 3.11902ZM40.7266 11.4066C39.1143 13.8043 37.5135 17.2451 36.965 21.21C36.9078 21.6236 36.862 22.0431 36.8287 22.4681H44.881C44.5819 18.3322 43.0813 14.5292 40.7266 11.4066ZM33.7484 25.5319H25.5319L25.5319 44.881C30.7324 44.5049 35.4065 42.2292 38.8635 38.7445C35.4785 34.2989 34.0161 29.7653 33.7484 25.5319ZM40.9047 36.3537C38.2431 32.6663 37.0703 28.9765 36.8188 25.5319H44.881C44.5895 29.5626 43.1569 33.2771 40.9047 36.3537ZM0 24C0 10.7452 10.7452 0 24 0C37.2548 0 48 10.7452 48 24C48 37.2548 37.2548 48 24 48C10.7452 48 0 37.2548 0 24Z" fill="#EFDBFF"/>
</svg>
