<svg width="45" height="42" viewBox="0 0 45 42" fill="none" xmlns="http://www.w3.org/2000/svg">
<path fill-rule="evenodd" clip-rule="evenodd" d="M10.481 0.565447C11.0458 0.196419 11.705 0 12.3786 0H14.5562C15.7128 0 16.7319 0.576914 17.3613 1.41588C19.7679 4.6238 21.6255 4.8026 22.7481 4.5626C24.2015 4.25187 25.6579 2.98466 26.6461 1.54484C27.2704 0.635348 28.3269 0 29.5498 0H32.68C33.3537 0 34.0128 0.196419 34.5776 0.565447L43.4153 6.33985C45.0669 7.419 45.4998 9.65935 44.3702 11.2815L41.993 14.6952C40.9707 16.1633 39.0104 16.6179 37.4516 15.7488V38.5C37.4516 40.433 35.8928 42 33.9698 42H10.5915C8.66849 42 7.1096 40.433 7.1096 38.5V15.748C5.47786 16.6188 3.44681 16.056 2.49227 14.4569L0.496612 11.1134C-0.467697 9.49789 0.0132449 7.40493 1.58472 6.37815L10.481 0.565447ZM12.821 5L5.5025 9.78177L6.01495 10.6403L6.91088 10.14C9.23166 8.84393 12.0837 10.5308 12.0837 13.1995V37H32.4775V13.1995C32.4775 10.5308 35.3296 8.84393 37.6504 10.14L38.6894 10.7202L39.4096 9.68601L32.2377 5H30.2929C28.9048 6.80776 26.6747 8.83496 23.7828 9.45321C20.3905 10.1785 16.9202 8.81972 13.8361 5H12.821Z" fill="#C883FF"/>
</svg>
