<svg width="50" height="41" viewBox="0 0 50 41" fill="none" xmlns="http://www.w3.org/2000/svg">
<path d="M40.9091 20.2222C40.9091 19.1177 40.0137 18.2222 38.9091 18.2222H24.7273C23.6227 18.2222 22.7273 19.1177 22.7273 20.2222V29.8889C22.7273 30.9935 23.6227 31.8889 24.7273 31.8889H38.9091C40.0137 31.8889 40.9091 30.9935 40.9091 29.8889V20.2222ZM36.3636 27.3333H27.2727V22.7778H36.3636V27.3333ZM45.4545 0H4.54545C2.04545 0 0 2.00444 0 4.51V36.4444C0 38.95 2.04545 41 4.54545 41H45.4545C47.9545 41 50 38.95 50 36.4444V4.51C50 2.00444 47.9545 0 45.4545 0ZM45.4545 36.49H4.54545V4.48722H45.4545V36.49Z" fill="#C883FF"/>
</svg>
