<svg width="50" height="42" viewBox="0 0 50 42" fill="none" xmlns="http://www.w3.org/2000/svg">
<path fill-rule="evenodd" clip-rule="evenodd" d="M4.79854 5.81209C3.38159 6.62924 2.8768 8.47346 3.67105 9.93126L7.02665 16.0903C7.47325 16.91 8.23546 17.433 9.06906 17.5885C8.91115 17.9597 8.82353 18.3697 8.82353 18.8008V25.8615C8.82353 27.5294 10.1352 28.8822 11.7553 28.8874H2.94118C1.31681 28.8874 0 30.2422 0 31.9134V38.9741C0 40.6453 1.31681 42 2.94118 42H13.7255C15.3499 42 16.6667 40.6453 16.6667 38.9741V38.974C16.6667 40.6452 17.9835 42 19.6078 42H30.3922C32.0165 42 33.3333 40.6452 33.3333 38.974C33.3333 40.6452 34.6501 42 36.2745 42H47.0588C48.6832 42 50 40.6452 50 38.974V31.9134C50 30.2422 48.6832 28.8874 47.0588 28.8874H39.2357C40.8509 28.8763 42.1569 27.5258 42.1569 25.8615V18.8008C42.1569 17.1296 40.8401 15.7748 39.2157 15.7748H28.4314C26.807 15.7748 25.4902 17.1296 25.4902 18.8008C25.4902 17.1296 24.1734 15.7748 22.549 15.7748H13.5889L20.4376 11.8252C20.9303 11.541 21.3128 11.1326 21.5686 10.6595V12.7488C21.5686 14.42 22.8854 15.7748 24.5098 15.7748H35.2941C36.9185 15.7748 38.2353 14.42 38.2353 12.7488V5.68815C38.2353 4.01694 36.9185 2.66216 35.2941 2.66216H24.5098C22.8854 2.66216 21.5686 4.01694 21.5686 5.68815V7.7125C21.5675 7.71033 21.5663 7.70816 21.5651 7.70599L18.2095 1.54694C17.4152 0.0891388 15.6227 -0.430213 14.2058 0.38694L4.79854 5.81209ZM9.96809 13.2377L7.57123 8.83835L15.2681 4.39959L17.6649 8.79891L9.96809 13.2377ZM25.4902 6.69681V11.7401H34.3137V6.69681H25.4902ZM30.4122 28.8874C32.0273 28.8985 33.3333 30.249 33.3333 31.9134C33.3333 30.249 34.6393 28.8985 36.2545 28.8874H30.4122ZM28.4113 28.8874C26.7962 28.8763 25.4902 27.5258 25.4902 25.8615C25.4902 27.5258 24.1842 28.8763 22.569 28.8874H28.4113ZM13.7349 28.8874C15.355 28.8927 16.6667 30.2455 16.6667 31.9134V31.9134C16.6667 30.249 17.9727 28.8985 19.5878 28.8874H13.7349ZM12.7451 19.8095V24.8528H21.5686V19.8095H12.7451ZM20.5882 32.922V37.9653H29.4118V32.922H20.5882ZM3.92157 37.9654V32.9221H12.7451V37.9654H3.92157ZM37.2549 32.922V37.9653H46.0784V32.922H37.2549ZM29.4118 24.8528V19.8095H38.2353V24.8528H29.4118Z" fill="#EFDBFF"/>
</svg>
