<svg width="50" height="39" viewBox="0 0 50 39" fill="none" xmlns="http://www.w3.org/2000/svg">
<path d="M44.2222 2.46188C43.6667 1.02375 42.1111 0 40.2778 0H9.72222C7.88889 0 6.36111 1.02375 5.77778 2.46188L0 17.0625V36.5625C0 37.9031 1.25 39 2.77778 39H5.55556C7.08333 39 8.33333 37.9031 8.33333 36.5625V34.125H41.6667V36.5625C41.6667 37.9031 42.9167 39 44.4444 39H47.2222C48.75 39 50 37.9031 50 36.5625V17.0625L44.2222 2.46188ZM10.6944 4.875H39.2778L42.2778 12.4556H7.69444L10.6944 4.875ZM44.4444 29.25H5.55556V17.0625H44.4444V29.25Z" fill="#C883FF"/>
<path d="M12.4999 26.8124C14.8011 26.8124 16.6666 25.1754 16.6666 23.1561C16.6666 21.1368 14.8011 19.4999 12.4999 19.4999C10.1987 19.4999 8.33325 21.1368 8.33325 23.1561C8.33325 25.1754 10.1987 26.8124 12.4999 26.8124Z" fill="#C883FF"/>
<path d="M37.4999 26.8124C39.8011 26.8124 41.6666 25.1754 41.6666 23.1561C41.6666 21.1368 39.8011 19.4999 37.4999 19.4999C35.1987 19.4999 33.3333 21.1368 33.3333 23.1561C33.3333 25.1754 35.1987 26.8124 37.4999 26.8124Z" fill="#C883FF"/>
</svg>
