<svg width="52" height="33" viewBox="0 0 52 33" fill="none" xmlns="http://www.w3.org/2000/svg">
<path fill-rule="evenodd" clip-rule="evenodd" d="M10.5 15.2432V4H41.5V15.2432H10.5ZM45.5 6H49C50.6569 6 52 7.34314 52 9V26C52 27.6569 50.6569 29 49 29H46V31C46 32.1046 45.1046 33 44 33C42.8954 33 42 32.1046 42 31V29H10V31C10 32.1046 9.10457 33 8 33C6.89543 33 6 32.1046 6 31V29H3C1.34315 29 0 27.6569 0 26V9C0 7.34314 1.34315 6 3 6H6.5V3C6.5 1.34315 7.84315 0 9.5 0H42.5C44.1569 0 45.5 1.34315 45.5 3V6ZM7.38167 18.6243C7.92432 19.1654 8.67309 19.5 9.5 19.5H42.5C43.3269 19.5 44.0757 19.1654 44.6183 18.6243C45.3326 18.0759 45.7931 17.2134 45.7931 16.2432V10H48V25H44H8H4V10H6.2069V16.2432C6.2069 17.2134 6.66737 18.0759 7.38167 18.6243Z" fill="#EFDBFF"/>
<path fill-rule="evenodd" clip-rule="evenodd" d="M10.5 15.2432V4H41.5V15.2432H10.5ZM45.5 6H49C50.6569 6 52 7.34314 52 9V26C52 27.6569 50.6569 29 49 29H46V31C46 32.1046 45.1046 33 44 33C42.8954 33 42 32.1046 42 31V29H10V31C10 32.1046 9.10457 33 8 33C6.89543 33 6 32.1046 6 31V29H3C1.34315 29 0 27.6569 0 26V9C0 7.34314 1.34315 6 3 6H6.5V3C6.5 1.34315 7.84315 0 9.5 0H42.5C44.1569 0 45.5 1.34315 45.5 3V6ZM7.38167 18.6243C7.92432 19.1654 8.67309 19.5 9.5 19.5H42.5C43.3269 19.5 44.0757 19.1654 44.6183 18.6243C45.3326 18.0759 45.7931 17.2134 45.7931 16.2432V10H48V25H44H8H4V10H6.2069V16.2432C6.2069 17.2134 6.66737 18.0759 7.38167 18.6243Z" fill="#EFDBFF"/>
<path fill-rule="evenodd" clip-rule="evenodd" d="M10.5 15.2432V4H41.5V15.2432H10.5ZM45.5 6H49C50.6569 6 52 7.34314 52 9V26C52 27.6569 50.6569 29 49 29H46V31C46 32.1046 45.1046 33 44 33C42.8954 33 42 32.1046 42 31V29H10V31C10 32.1046 9.10457 33 8 33C6.89543 33 6 32.1046 6 31V29H3C1.34315 29 0 27.6569 0 26V9C0 7.34314 1.34315 6 3 6H6.5V3C6.5 1.34315 7.84315 0 9.5 0H42.5C44.1569 0 45.5 1.34315 45.5 3V6ZM7.38167 18.6243C7.92432 19.1654 8.67309 19.5 9.5 19.5H42.5C43.3269 19.5 44.0757 19.1654 44.6183 18.6243C45.3326 18.0759 45.7931 17.2134 45.7931 16.2432V10H48V25H44H8H4V10H6.2069V16.2432C6.2069 17.2134 6.66737 18.0759 7.38167 18.6243Z" fill="#EFDBFF"/>
<path fill-rule="evenodd" clip-rule="evenodd" d="M10.5 15.2432V4H41.5V15.2432H10.5ZM45.5 6H49C50.6569 6 52 7.34314 52 9V26C52 27.6569 50.6569 29 49 29H46V31C46 32.1046 45.1046 33 44 33C42.8954 33 42 32.1046 42 31V29H10V31C10 32.1046 9.10457 33 8 33C6.89543 33 6 32.1046 6 31V29H3C1.34315 29 0 27.6569 0 26V9C0 7.34314 1.34315 6 3 6H6.5V3C6.5 1.34315 7.84315 0 9.5 0H42.5C44.1569 0 45.5 1.34315 45.5 3V6ZM7.38167 18.6243C7.92432 19.1654 8.67309 19.5 9.5 19.5H42.5C43.3269 19.5 44.0757 19.1654 44.6183 18.6243C45.3326 18.0759 45.7931 17.2134 45.7931 16.2432V10H48V25H44H8H4V10H6.2069V16.2432C6.2069 17.2134 6.66737 18.0759 7.38167 18.6243Z" fill="#EFDBFF"/>
<path fill-rule="evenodd" clip-rule="evenodd" d="M10.5 15.2432V4H41.5V15.2432H10.5ZM45.5 6H49C50.6569 6 52 7.34314 52 9V26C52 27.6569 50.6569 29 49 29H46V31C46 32.1046 45.1046 33 44 33C42.8954 33 42 32.1046 42 31V29H10V31C10 32.1046 9.10457 33 8 33C6.89543 33 6 32.1046 6 31V29H3C1.34315 29 0 27.6569 0 26V9C0 7.34314 1.34315 6 3 6H6.5V3C6.5 1.34315 7.84315 0 9.5 0H42.5C44.1569 0 45.5 1.34315 45.5 3V6ZM7.38167 18.6243C7.92432 19.1654 8.67309 19.5 9.5 19.5H42.5C43.3269 19.5 44.0757 19.1654 44.6183 18.6243C45.3326 18.0759 45.7931 17.2134 45.7931 16.2432V10H48V25H44H8H4V10H6.2069V16.2432C6.2069 17.2134 6.66737 18.0759 7.38167 18.6243Z" fill="#EFDBFF"/>
</svg>
