<svg width="26" height="19" viewBox="0 0 26 19" fill="none" xmlns="http://www.w3.org/2000/svg">
<path d="M13 2.53333C17.4791 2.53333 21.4736 5.23133 23.4236 9.5C21.4736 13.7687 17.4909 16.4667 13 16.4667C8.50909 16.4667 4.52636 13.7687 2.57636 9.5C4.52636 5.23133 8.52091 2.53333 13 2.53333ZM13 0C7.09091 0 2.04455 3.93933 0 9.5C2.04455 15.0607 7.09091 19 13 19C18.9091 19 23.9555 15.0607 26 9.5C23.9555 3.93933 18.9091 0 13 0ZM13 6.33333C14.6309 6.33333 15.9545 7.752 15.9545 9.5C15.9545 11.248 14.6309 12.6667 13 12.6667C11.3691 12.6667 10.0455 11.248 10.0455 9.5C10.0455 7.752 11.3691 6.33333 13 6.33333ZM13 3.8C10.0691 3.8 7.68182 6.35867 7.68182 9.5C7.68182 12.6413 10.0691 15.2 13 15.2C15.9309 15.2 18.3182 12.6413 18.3182 9.5C18.3182 6.35867 15.9309 3.8 13 3.8Z" fill="#B79ADD"/>
</svg>
