<svg width="19" height="20" viewBox="0 0 19 20" fill="none" xmlns="http://www.w3.org/2000/svg">
<path fill-rule="evenodd" clip-rule="evenodd" d="M15.5068 9.99849C15.5068 13.5904 12.5949 16.5022 9.003 16.5022C5.41108 16.5022 2.49925 13.5904 2.49925 9.99849C2.49925 6.40656 5.41108 3.49473 9.003 3.49473C12.5949 3.49473 15.5068 6.40656 15.5068 9.99849ZM14.4822 17.1427C12.9645 18.3085 11.0647 19.0015 9.003 19.0015C4.03078 19.0015 0 14.9707 0 9.99849C0 5.02626 4.03078 0.995483 9.003 0.995483C13.9752 0.995483 18.006 5.02626 18.006 9.99849C18.006 12.0916 17.2917 14.0178 16.0937 15.5468L17.6396 17.0927C18.0825 17.5356 18.0825 18.2536 17.6396 18.6964C17.1968 19.1393 16.4787 19.1393 16.0359 18.6964L14.4822 17.1427Z" fill="white"/>
</svg>
