<svg width="16" height="17" viewBox="0 0 16 17" fill="none" xmlns="http://www.w3.org/2000/svg">
<path fill-rule="evenodd" clip-rule="evenodd" d="M14 8C14 11.3137 11.3137 14 8 14C4.68629 14 2 11.3137 2 8C2 4.68629 4.68629 2 8 2C11.3137 2 14 4.68629 14 8ZM12.8688 14.3484C11.5201 15.3842 9.83197 16 8 16C3.58172 16 0 12.4183 0 8C0 3.58172 3.58172 0 8 0C12.4183 0 16 3.58172 16 8C16 9.8599 15.3653 11.5716 14.3007 12.9302L15.6743 14.3039C16.0679 14.6974 16.0679 15.3354 15.6743 15.7289C15.2808 16.1224 14.6428 16.1224 14.2493 15.7289L12.8688 14.3484Z" fill="#C5C5C5"/>
</svg>
